<svg width="160" height="160" viewBox="0 0 160 160" fill="none" xmlns="http://www.w3.org/2000/svg">
<circle cx="80" cy="80" r="60" fill="#4F46E5"/>
<path fill-rule="evenodd" clip-rule="evenodd" d="M40 0C17.9086 0 0 17.9086 0 40V120C0 142.091 17.9086 160 40 160H120C142.091 160 160 142.091 160 120V40C160 17.9086 142.091 0 120 0H40ZM80 140C113.137 140 140 113.137 140 80C140 46.8629 113.137 20 80 20C46.8629 20 20 46.8629 20 80C20 113.137 46.8629 140 80 140Z" fill="#18181B"/>
<path fill-rule="evenodd" clip-rule="evenodd" d="M80 90C84.9706 90 89 85.9706 89 81C89 80.8319 88.9954 80.6649 88.9863 80.4991C107.03 82.516 123.26 90.5343 135.634 102.512C126.73 124.494 105.176 140 80 140C54.8242 140 33.2699 124.494 24.3661 102.512C36.7404 90.5343 52.9703 82.516 71.0137 80.4991C71.0046 80.6649 71 80.8319 71 81C71 85.9706 75.0294 90 80 90Z" fill="#818CF8"/>
<path fill-rule="evenodd" clip-rule="evenodd" d="M58.7646 79.3273C58.7305 66.9739 63.8364 54.7433 73.8587 43.2315C74.6163 42.3498 76.0196 40.872 76.9634 39.953C78.8262 38.115 79.087 37.9784 80.4651 38.1891C81.2596 38.2882 82.5754 39.5046 85.3804 42.6823C95.8437 54.5612 101.043 66.8388 100.952 79.4158L100.927 82.0727L103.124 85.1636C105.531 88.5648 106.338 90.0172 107.12 92.2891C108.509 96.3859 108.558 100.731 107.253 104.891C106.756 106.505 103.29 114.837 102.632 116.016C102.209 116.761 101.278 117.097 100.434 116.799C99.7759 116.563 99.7386 116.526 96.1271 111.126C94.1414 108.122 92.4659 105.677 92.4039 105.689C92.3542 105.689 92.0313 106.087 91.6959 106.571C90.839 107.8 89.3364 108.881 87.6726 109.452C86.5178 109.862 85.7108 109.9 79.6272 109.877C73.7423 109.853 72.7366 109.791 71.8055 109.432C70.3283 108.848 68.8759 107.769 68.0444 106.614C67.6845 106.105 67.3369 105.683 67.2873 105.683C67.2376 105.683 65.6106 108.055 63.673 110.961C61.7478 113.854 60.0339 116.362 59.8848 116.511C59.4378 116.959 57.9852 116.897 57.5135 116.425C57.1039 116.016 53.2946 107.313 52.5874 105.116C51.9051 103.092 51.6572 101.503 51.6206 99.0326C51.5594 95.5935 52.2306 92.7129 53.7709 89.5838C54.1808 88.7767 55.4726 86.765 56.64 85.1011L58.7763 82.096L58.7646 79.3273ZM75.511 87.8524C71.638 85.569 70.3233 80.3548 72.6212 76.3688C74.8942 72.4077 80.1836 71.0903 84.2304 73.473C88.1283 75.7565 89.4058 80.9831 87.0582 84.9939C84.7479 88.9178 79.5207 90.1979 75.511 87.8524Z" fill="#18181B"/>
</svg>
