<svg width="160" height="160" viewBox="0 0 160 160" fill="none" xmlns="http://www.w3.org/2000/svg">
<rect width="160" height="160" rx="24" fill="url(#paint0_radial_1_8)"/>
<path d="M116.418 32.1683C96.1156 33.5726 79.7706 40.2898 68.1558 51.9689L65.5565 54.5902L60.7092 55.4094C58.0396 55.8775 54.9252 56.5562 53.7778 56.9307C49.3754 58.4286 46.0267 60.5117 42.842 63.8118C40.5472 66.1757 39.2827 67.9076 38.0182 70.4588C36.6131 73.1971 32 84.9932 32 85.7656C32 86.655 33.3113 88.0826 34.1544 88.0826C34.4354 88.0826 38.4162 87.3337 42.9591 86.4209C47.5254 85.5081 51.2956 84.806 51.3424 84.8528C51.3892 84.8996 51.319 85.6251 51.1785 86.4443C50.8741 88.3167 51.2253 90.704 52.0683 92.6466C52.6069 93.8637 53.4968 94.8701 59.0232 100.44C64.7369 106.198 65.5331 106.924 67.0083 107.626C69.1159 108.656 71.5512 109.053 73.5182 108.702C74.291 108.562 74.9701 108.492 75.0169 108.539C75.0872 108.585 74.3613 112.471 73.4012 117.175C71.7151 125.671 71.7151 125.741 72.1132 126.584C72.6284 127.66 73.8227 128.222 74.9233 127.918C76.6561 127.426 87.7792 122.839 89.7696 121.786C94.9213 119.094 98.9725 114.951 101.525 109.779C102.93 106.9 103.539 104.77 104.475 99.2936L105.318 94.3084L107.847 91.8274C119.79 80.0548 126.464 63.5777 127.799 42.5133C128.15 36.8727 128.056 34.4854 127.401 33.6428C126.3 32.1449 125.925 32.0279 122.436 32.0045C120.68 31.9811 117.964 32.0513 116.418 32.1683ZM95.3897 46.5623C104.194 48.7624 111.149 55.6903 113.374 64.5139C114.334 68.3289 114.264 69.0076 112.718 72.1673C110.049 77.6207 106.911 82.0208 102.602 86.3273C94.7574 94.1913 85.1096 99.1532 74.0334 101.049C70.6848 101.634 70.919 101.775 64.5964 95.502C58.1333 89.0657 58.2504 89.2529 58.8124 85.9528C60.2877 77.3866 63.6363 69.5694 68.7178 62.8053C73.8461 55.9945 81.2692 50.0263 88.8563 46.656C91.0809 45.6495 91.76 45.6495 95.3897 46.5623Z" fill="#09090B"/>
<path d="M84.0091 62.2437C78.0846 63.8353 74.4082 69.9907 75.9069 75.7952C77.4758 81.7868 83.611 85.5082 89.4887 83.9869C95.4834 82.4188 99.2067 76.2867 97.6846 70.4588C96.1157 64.397 89.8868 60.6522 84.0091 62.2437Z" fill="#09090B"/>
<defs>
<radialGradient id="paint0_radial_1_8" cx="0" cy="0" r="1" gradientUnits="userSpaceOnUse" gradientTransform="translate(-5.96046e-06 160) rotate(-45) scale(226.274 141.421)">
<stop stop-color="#56CD76"/>
<stop offset="1" stop-color="#247A3B"/>
</radialGradient>
</defs>
</svg>
